<svg id="Layer_1" data-name="Layer 1" xmlns="http://www.w3.org/2000/svg" viewBox="0 0 52.52 59.63"><defs><style>.cls-1,.cls-10,.cls-11,.cls-12,.cls-13,.cls-14,.cls-15,.cls-16,.cls-17,.cls-18,.cls-19,.cls-2,.cls-20,.cls-21,.cls-3,.cls-4,.cls-5,.cls-6,.cls-7,.cls-8,.cls-9{fill:none;stroke:#b21f24;stroke-miterlimit:10;}.cls-1{stroke-width:0.28px;}.cls-2{stroke-width:0.3px;}.cls-3{stroke-width:0.31px;}.cls-4{stroke-width:0.34px;}.cls-5{stroke-width:0.36px;}.cls-6{stroke-width:0.38px;}.cls-7{stroke-width:0.41px;}.cls-8{stroke-width:0.43px;}.cls-9{stroke-width:0.46px;}.cls-10{stroke-width:0.49px;}.cls-11{stroke-width:0.53px;}.cls-12{stroke-width:0.56px;}.cls-13{stroke-width:0.6px;}.cls-14{stroke-width:0.64px;}.cls-15{stroke-width:0.68px;}.cls-16{stroke-width:0.73px;}.cls-17{stroke-width:0.77px;}.cls-18{stroke-width:0.82px;}.cls-19{stroke-width:0.88px;}.cls-20{stroke-width:0.94px;}</style></defs><title>logo_image</title><path class="cls-1" d="M607,378.09c3.9,2.2,5.56,6.62,3.71,9.86s-6.52,4.08-10.42,1.87-5.57-6.62-3.71-9.86S603.11,375.88,607,378.09Z" transform="translate(-577.39 -354.14)"/><path class="cls-2" d="M601,377.25c4.45-1.75,9.24-.16,10.68,3.54s-1,8.12-5.45,9.87-9.25.16-10.69-3.54S596.58,379,601,377.25Z" transform="translate(-577.39 -354.14)"/><path class="cls-3" d="M596.32,381.63c1.55-4.86,6.09-7.76,10.13-6.47s6.08,6.26,4.53,11.12-6.08,7.75-10.13,6.47S594.78,386.48,596.32,381.63Z" transform="translate(-577.39 -354.14)"/><path class="cls-4" d="M596.79,388.45c-3-4.53-2.34-10.22,1.44-12.7s9.29-.83,12.28,3.7,2.35,10.23-1.44,12.71S599.78,393,596.79,388.45Z" transform="translate(-577.39 -354.14)"/><path class="cls-5" d="M602.77,392.64c-5.77-.56-10.06-4.91-9.58-9.7s5.56-8.23,11.34-7.67,10.07,4.9,9.58,9.7S608.55,393.2,602.77,392.64Z" transform="translate(-577.39 -354.14)"/><path class="cls-6" d="M610.27,390.5c-4.35,4.4-10.84,5-14.5,1.42s-3.09-10.11,1.26-14.51,10.84-5,14.5-1.42S614.63,386.1,610.27,390.5Z" transform="translate(-577.39 -354.14)"/><path class="cls-7" d="M613.54,382.86c.73,6.55-3.11,12.34-8.57,12.95s-10.48-4.22-11.21-10.76,3.12-12.34,8.58-12.95S612.82,376.32,613.54,382.86Z" transform="translate(-577.39 -354.14)"/><path class="cls-8" d="M609.4,375.05c5.92,3.78,8.15,10.83,5,15.75s-10.55,5.85-16.47,2.06-8.16-10.84-5-15.76S603.47,371.26,609.4,375.05Z" transform="translate(-577.39 -354.14)"/><path class="cls-9" d="M600.12,373.24c7.13-2.37,14.48.52,16.44,6.43s-2.25,12.64-9.37,15-14.49-.52-16.44-6.44S593,375.6,600.12,373.24Z" transform="translate(-577.39 -354.14)"/><path class="cls-10" d="M592.38,379.7c2.83-7.48,10.17-11.63,16.4-9.28s9,10.32,6.15,17.79-10.17,11.63-16.4,9.28S589.55,387.17,592.38,379.7Z" transform="translate(-577.39 -354.14)"/><path class="cls-11" d="M592.53,390.43c-4.3-7.35-2.81-16.2,3.33-19.78s14.61-.52,18.91,6.83,2.82,16.2-3.33,19.78S596.84,397.77,592.53,390.43Z" transform="translate(-577.39 -354.14)"/><path class="cls-12" d="M601.55,397.48c-9-1.36-15.35-8.52-14.19-16s9.4-12.43,18.4-11.06,15.34,8.52,14.18,16S610.54,398.84,601.55,397.48Z" transform="translate(-577.39 -354.14)"/><path class="cls-13" d="M613.47,394.76c-7.18,6.52-17.4,7-22.82,1s-4-16.09,3.18-22.62,17.4-7,22.83-1S620.65,388.23,613.47,394.76Z" transform="translate(-577.39 -354.14)"/><path class="cls-14" d="M619.23,383.07c.58,10.31-5.91,19.06-14.51,19.55s-16.05-7.47-16.64-17.78,5.91-19.06,14.51-19.55S618.64,372.76,619.23,383.07Z" transform="translate(-577.39 -354.14)"/><path class="cls-15" d="M613.39,370.49c9,6.41,11.86,17.65,6.48,25.09s-17,8.26-26,1.84-11.85-17.65-6.47-25.09S604.44,364.07,613.39,370.49Z" transform="translate(-577.39 -354.14)"/><path class="cls-16" d="M599,366.88c11.35-3.11,22.63,2,25.19,11.45s-4.57,19.59-15.93,22.7-22.63-2-25.18-11.45S587.67,370,599,366.88Z" transform="translate(-577.39 -354.14)"/><path class="cls-17" d="M586.36,376.35c5.06-11.47,16.9-17.36,26.45-13.16S626,380.09,621,391.56s-16.9,17.36-26.45,13.16S581.3,387.82,586.36,376.35Z" transform="translate(-577.39 -354.14)"/><path class="cls-18" d="M585.7,393.16c-6.12-11.86-3-25.6,6.87-30.68s22.91.41,29,12.27,3,25.6-6.86,30.68S591.82,405,585.7,393.16Z" transform="translate(-577.39 -354.14)"/><path class="cls-19" d="M599.22,405c-14-2.88-23.3-14.63-20.86-26.23s15.75-18.67,29.72-15.78,23.31,14.63,20.86,26.23S613.19,407.84,599.22,405Z" transform="translate(-577.39 -354.14)"/><path class="cls-20" d="M618.12,401.69c-11.79,9.61-27.83,9.47-35.82-.32s-4.9-25.53,6.89-35.15,27.82-9.47,35.81.32S629.91,392.07,618.12,401.69Z" transform="translate(-577.39 -354.14)"/><path class="cls-21" d="M628.1,383.87c.06,16.19-10.84,29.35-24.35,29.4s-24.49-13-24.55-29.23,10.85-29.35,24.35-29.4S628.05,367.68,628.1,383.87Z" transform="translate(-577.39 -354.14)"/></svg>